<?xml version="1.0" encoding="UTF-8" standalone="no" ?>
<!DOCTYPE svg PUBLIC "-//W3C//DTD SVG 1.1//EN" "http://www.w3.org/Graphics/SVG/1.1/DTD/svg11.dtd">
<svg xmlns="http://www.w3.org/2000/svg" xmlns:xlink="http://www.w3.org/1999/xlink" version="1.1" width="640" height="640" viewBox="0 0 640 640" xml:space="preserve">
<desc>Created with Fabric.js 4.6.0</desc>
<defs>
</defs>
<g transform="matrix(0.33 0 0 1.53 178.22 320)" id="z6Hka9_PBOxKe8ghNJrfp"  >
<path style="stroke: rgb(219,155,226); stroke-width: 0; stroke-dasharray: none; stroke-linecap: butt; stroke-dashoffset: 0; stroke-linejoin: miter; stroke-miterlimit: 4; fill: rgb(255,255,255); fill-rule: nonzero; opacity: 1;" vector-effect="non-scaling-stroke"  transform=" translate(0, 0)" d="M -201.62376 -178.21875 L -279.37389 -203.47138999999999 L 279.3739 -203.47138999999999 L 180.06637999999998 -178.21875 L 180.06637999999998 203.47138999999999 L -112.09876000000003 203.47138999999999 L -143.37748000000002 203.47138999999999 L -143.37748000000002 203.47138999999999 C -175.54601000000002 203.47138999999999 -201.62376 197.79847999999998 -201.62376 190.80059999999997 z" stroke-linecap="round" />
</g>
<g transform="matrix(0 -0.27 1.03 0 308.29 580.31)" id="qX3JAffjHa5rtPLb8X_m6"  >
<path style="stroke: rgb(219,155,226); stroke-width: 0; stroke-dasharray: none; stroke-linecap: butt; stroke-dashoffset: 0; stroke-linejoin: miter; stroke-miterlimit: 4; fill: rgb(255,255,255); fill-rule: nonzero; opacity: 1;" vector-effect="non-scaling-stroke"  transform=" translate(0, 0)" d="M -190.84507 -174.75887 C -190.84507 -183.64303 -163.67652999999999 -190.84507 -130.16244 -190.84507 L 190.84507000000002 -190.84507 L 190.84507000000002 190.84507 L -142.72220999999996 190.84507 L -142.72220999999996 190.84507 C -169.29972999999995 190.84507 -190.84506999999996 185.13367 -190.84506999999996 178.08830999999998 z" stroke-linecap="round" />
</g>
<g transform="matrix(0.25 0 0 0.41 449.33 446.29)" id="TitWUS89TDUR-WtnfUzOq"  >
<path style="stroke: rgb(219,155,226); stroke-width: 0; stroke-dasharray: none; stroke-linecap: butt; stroke-dashoffset: 0; stroke-linejoin: miter; stroke-miterlimit: 4; fill: rgb(255,255,255); fill-rule: nonzero; opacity: 1;" vector-effect="non-scaling-stroke"  transform=" translate(0, 0)" d="M -165.75709 -143.28366 L -416.84728 -238.40648 L 416.84728 -238.40648 L 215.93305 -143.28366 L 215.93305 238.40648 L -165.75708999999998 238.40648 z" stroke-linecap="round" />
</g>
<g transform="matrix(0 -0.21 0.32 0 255.8 176.01)" id="1X8QuRuKTpmh2JTZgq0DB"  >
<path style="stroke: rgb(219,155,226); stroke-width: 0; stroke-dasharray: none; stroke-linecap: butt; stroke-dashoffset: 0; stroke-linejoin: miter; stroke-miterlimit: 4; fill: rgb(255,255,255); fill-rule: nonzero; opacity: 1;" vector-effect="non-scaling-stroke"  transform=" translate(0, 0)" d="M -206.09767 -199.69598 L 175.59247 -199.69598 L 175.59247 181.99416 L 285.5868 199.69598 L -285.58681000000007 199.69598 L -206.09768000000008 181.99416 z" stroke-linecap="round" />
</g>
</svg>